<?xml version="1.0" encoding="iso-8859-1"?>
<!-- Generator: Adobe Illustrator 19.0.0, SVG Export Plug-In . SVG Version: 6.00 Build 0)  -->
<svg version="1.1" id="Layer_1" xmlns="http://www.w3.org/2000/svg" xmlns:xlink="http://www.w3.org/1999/xlink" x="0px" y="0px"
	 viewBox="0 0 512 512" style="enable-background:new 0 0 512 512;" xml:space="preserve">
<path style="fill:#FFC89F;" d="M325.508,51.662h-0.262c-3.565,0-6.958,0.748-10.031,2.096v-7.781
	c0-13.815-11.24-25.056-25.056-25.056h-0.261c-3.596,0-7.017,0.761-10.111,2.131C278.765,10.17,267.953,0,254.812,0h-0.261
	c-11.013,0-20.389,7.143-23.74,17.039c-3.408-1.738-7.265-2.719-11.346-2.719h-0.261c-13.815,0-25.055,11.239-25.055,25.055v89.136
	c-6.988-5.683-15.895-9.094-25.582-9.094c-4.149,0-7.512,3.362-7.512,7.512v108.695c0,14.418,6.075,28.3,16.669,38.08l9.359,8.643
	v32.565c0,4.149,3.362,7.512,7.512,7.512h121.558c4.149,0,7.512-3.362,7.512-7.512v-33.193l11.497-14.204
	c9.916-12.248,15.378-27.673,15.378-43.433v-26.777c0.017-0.201,0.024-0.406,0.024-0.611V76.716
	C350.562,62.901,339.324,51.662,325.508,51.662z"/>
<g>
	<path style="fill:#F7B081;" d="M229.545,200.97c-5.472-2.504-10.923-4.459-15.925-5.975c-6.339-1.921-12.873-3.073-19.471-3.468
		V128.51c-3.369-2.74-7.188-4.946-11.322-6.502v74.81h0.053c-0.031,0.253-0.053,0.51-0.053,0.771c0,3.829,2.888,7.046,6.694,7.467
		c0.171,0.02,17.342,1.986,34.078,9.714c20.775,9.594,31.336,23.35,31.392,40.887c0.013,4.013,3.183,7.477,7.193,7.643
		c4.295,0.178,7.83-3.25,7.83-7.505C270.014,232.041,256.019,213.083,229.545,200.97z"/>
	<path style="fill:#F7B081;" d="M242.201,166.538V3.282c-5.245,2.987-9.316,7.801-11.322,13.582v138.351
		C230.878,161.469,235.947,166.538,242.201,166.538z"/>
	<path style="fill:#F7B081;" d="M279.867,166.538V23.021c-0.026,0.012-0.053,0.021-0.079,0.033
		c-0.629-7.915-4.956-14.801-11.243-18.939v151.101C268.544,161.469,273.614,166.538,279.867,166.538z"/>
	<path style="fill:#F7B081;" d="M315.214,53.758v-7.781c0-8.935-4.705-16.787-11.763-21.224v130.462
		c0,6.254,5.07,11.322,11.322,11.322h0.441V53.758L315.214,53.758z"/>
</g>
<path style="fill:#EFE7E4;" d="M326.008,307.399H182.519c-4.149,0-7.512,3.362-7.512,7.512v52.14c0,4.149,3.362,7.512,7.512,7.512
	h143.488c4.149,0,7.512-3.362,7.512-7.512v-52.14C333.52,310.762,330.156,307.399,326.008,307.399z"/>
<path style="fill:#D8D1D0;" d="M326.008,307.399h-20.031v67.164h20.031c4.149,0,7.512-3.362,7.512-7.512v-52.14
	C333.52,310.762,330.156,307.399,326.008,307.399z"/>
<path style="fill:#FFC89F;" d="M124.63,164.977h-0.194c-1.929,0-3.796,0.266-5.568,0.765v-3.092
	c0-11.354-9.237-20.591-20.592-20.591h-0.194c-2.078,0-4.086,0.309-5.979,0.885c-1.908-9.393-10.232-16.483-20.179-16.483H71.73
	c-8.312,0-15.49,4.95-18.738,12.058c-2.304-0.892-4.805-1.382-7.419-1.382h-0.195c-11.354,0-20.591,9.237-20.591,20.591v62.73
	c-4.971-3.145-10.858-4.967-17.161-4.967c-4.148,0-7.512,3.362-7.512,7.512v81.036c0,11.282,4.753,22.142,13.041,29.795l6.364,5.876
	v23.441c0,4.149,3.363,7.512,7.512,7.512h90.625c4.149,0,7.512-3.362,7.512-7.512v-24.069l8.147-10.063
	c7.668-9.471,11.89-21.398,11.89-33.585v-19.888c0.013-0.175,0.019-0.354,0.019-0.532v-89.447
	C145.222,174.213,135.985,164.977,124.63,164.977z"/>
<g>
	<path style="fill:#F7B081;" d="M72.477,319.29c0.01,3.141,2.492,5.853,5.631,5.982c3.361,0.139,6.129-2.544,6.129-5.875
		c0-18.595-10.955-33.435-31.678-42.916c-4.284-1.96-8.549-3.49-12.465-4.677c-4.962-1.504-10.077-2.406-15.242-2.715v-49.327
		c-0.021-0.017-0.044-0.032-0.066-0.049v0.744c-2.688-1.701-5.652-2.999-8.798-3.846v56.621h0.041
		c-0.024,0.198-0.041,0.399-0.041,0.604c0,2.998,2.26,5.516,5.24,5.845c0.134,0.015,13.575,1.554,26.675,7.604
		C64.166,294.794,72.434,305.561,72.477,319.29z"/>
	<path style="fill:#F7B081;" d="M62.012,254.445V128.912c-3.823,2.056-6.921,5.283-8.817,9.2v107.363
		C53.195,250.428,57.142,254.445,62.012,254.445z"/>
	<path style="fill:#F7B081;" d="M91.343,254.445V140.758c-0.02,0.009-0.041,0.017-0.062,0.026c-0.027-0.347-0.066-0.689-0.11-1.03
		c-1.649-4.335-4.722-7.966-8.644-10.334v116.054C82.526,250.428,86.473,254.445,91.343,254.445z"/>
	<path style="fill:#F7B081;" d="M118.868,162.649c0-7.127-3.642-13.417-9.16-17.114v99.94c0,4.954,3.947,8.969,8.817,8.969h0.344
		v-88.703v-0.635C118.868,165.106,118.868,162.649,118.868,162.649z"/>
</g>
<path style="fill:#EFE7E4;" d="M125.004,355.639H18.027c-4.149,0-7.512,3.362-7.512,7.512v38.874c0,4.148,3.362,7.512,7.512,7.512
	h106.978c4.149,0,7.512-3.363,7.512-7.512V363.15C132.515,359.001,129.153,355.639,125.004,355.639z"/>
<path style="fill:#D8D1D0;" d="M125.004,355.639h-20.031v53.897h20.031c4.149,0,7.512-3.363,7.512-7.512V363.15
	C132.515,359.001,129.153,355.639,125.004,355.639z"/>
<path style="fill:#525F7F;" d="M135.406,394.512H7.625c-4.148,0-7.512,3.362-7.512,7.512v102.465c0,4.149,3.363,7.512,7.512,7.512
	h127.781c4.149,0,7.512-3.362,7.512-7.512V402.023C142.918,397.875,139.555,394.512,135.406,394.512z"/>
<path style="fill:#464D5F;" d="M135.406,394.512h-20.031V512h20.031c4.149,0,7.512-3.362,7.512-7.512V402.023
	C142.918,397.875,139.555,394.512,135.406,394.512z"/>
<circle style="fill:#353535;" cx="109.689" cy="428.591" r="7.966"/>
<path style="fill:#FFC89F;" d="M491.295,164.977h-0.194c-1.929,0-3.796,0.266-5.568,0.765v-3.092
	c0-11.354-9.237-20.591-20.592-20.591h-0.194c-2.078,0-4.086,0.309-5.979,0.885c-1.908-9.393-10.232-16.483-20.179-16.483h-0.194
	c-8.312,0-15.49,4.95-18.738,12.058c-2.304-0.892-4.805-1.382-7.419-1.382h-0.195c-11.354,0-20.591,9.237-20.591,20.591v62.73
	c-4.971-3.145-10.858-4.967-17.161-4.967c-4.149,0-7.512,3.362-7.512,7.512v81.036c0,11.282,4.753,22.142,13.041,29.795l6.364,5.876
	v23.441c0,4.149,3.362,7.512,7.512,7.512h90.625c4.149,0,7.512-3.362,7.512-7.512v-24.069l8.147-10.063
	c7.668-9.471,11.89-21.398,11.89-33.585v-19.888c0.013-0.175,0.019-0.354,0.019-0.532v-89.447
	C511.887,174.213,502.65,164.977,491.295,164.977z"/>
<g>
	<path style="fill:#F7B081;" d="M439.142,319.29c0.01,3.141,2.492,5.853,5.631,5.982c3.361,0.139,6.129-2.544,6.129-5.875
		c0-18.595-10.955-33.435-31.678-42.916c-4.284-1.96-8.549-3.49-12.465-4.677c-4.962-1.504-10.077-2.406-15.242-2.715v-49.327
		c-0.021-0.017-0.044-0.032-0.065-0.049v0.744c-2.688-1.701-5.652-2.999-8.798-3.846v56.621h0.041
		c-0.024,0.198-0.041,0.399-0.041,0.604c0,2.998,2.261,5.516,5.24,5.845c0.134,0.015,13.575,1.554,26.675,7.604
		C430.832,294.794,439.099,305.561,439.142,319.29z"/>
	<path style="fill:#F7B081;" d="M428.676,254.445V128.912c-3.823,2.056-6.921,5.283-8.817,9.2v107.363
		C419.86,250.428,423.807,254.445,428.676,254.445z"/>
	<path style="fill:#F7B081;" d="M458.009,254.445V140.758c-0.02,0.009-0.041,0.017-0.062,0.026c-0.027-0.347-0.066-0.689-0.11-1.03
		c-1.649-4.335-4.722-7.966-8.644-10.334v116.054C449.191,250.428,453.138,254.445,458.009,254.445z"/>
	<path style="fill:#F7B081;" d="M485.533,162.649c0-7.127-3.642-13.417-9.16-17.114v99.94c0,4.954,3.947,8.969,8.817,8.969h0.344
		v-88.703v-0.635V162.649z"/>
</g>
<path style="fill:#EFE7E4;" d="M491.669,355.639H384.692c-4.149,0-7.512,3.362-7.512,7.512v38.874c0,4.148,3.362,7.512,7.512,7.512
	h106.977c4.148,0,7.512-3.363,7.512-7.512V363.15C499.18,359.001,495.818,355.639,491.669,355.639z"/>
<path style="fill:#D8D1D0;" d="M491.669,355.639h-20.031v53.897h20.031c4.148,0,7.512-3.363,7.512-7.512V363.15
	C499.18,359.001,495.818,355.639,491.669,355.639z"/>
<path style="fill:#D9491D;" d="M502.071,394.512H374.29c-4.149,0-7.512,3.362-7.512,7.512v102.465c0,4.149,3.362,7.512,7.512,7.512
	h127.781c4.149,0,7.512-3.362,7.512-7.512V402.023C509.582,397.875,506.22,394.512,502.071,394.512z"/>
<path style="fill:#8D2909;" d="M502.071,394.512H482.04V512h20.031c4.149,0,7.512-3.362,7.512-7.512V402.023
	C509.582,397.875,506.22,394.512,502.071,394.512z"/>
<circle style="fill:#353535;" cx="476.355" cy="428.591" r="7.966"/>
<path style="fill:#7F8489;" d="M339.96,359.539H168.566c-4.149,0-7.512,3.362-7.512,7.512v137.438c0,4.149,3.362,7.512,7.512,7.512
	H339.96c4.149,0,7.512-3.362,7.512-7.512V367.05C347.471,362.902,344.109,359.539,339.96,359.539z"/>
<path style="fill:#616467;" d="M339.96,359.539h-20.031V512h20.031c4.149,0,7.512-3.362,7.512-7.512V367.05
	C347.471,362.902,344.109,359.539,339.96,359.539z"/>
<circle style="fill:#353535;" cx="307.705" cy="402.02" r="7.966"/>
<g>
</g>
<g>
</g>
<g>
</g>
<g>
</g>
<g>
</g>
<g>
</g>
<g>
</g>
<g>
</g>
<g>
</g>
<g>
</g>
<g>
</g>
<g>
</g>
<g>
</g>
<g>
</g>
<g>
</g>
</svg>
